<svg width="28" height="29" viewBox="0 0 28 29" fill="none" xmlns="http://www.w3.org/2000/svg">
<path d="M14 2.8598C7.81485 2.8598 2.80005 7.8746 2.80005 14.0598C2.80005 17.3843 4.25735 20.3609 6.55708 22.4124V22.139L6.68651 21.922C7.64411 20.3092 11.2664 18.7265 13.9982 18.7265C16.732 18.7265 20.3551 20.3083 21.3118 21.922L21.443 22.1408V22.396V22.4124C23.7437 20.3619 25.2001 17.3843 25.2001 14.0598C25.2001 7.8746 20.1852 2.8598 14 2.8598ZM14 8.4598C16.059 8.4598 17.7334 10.1342 17.7334 12.1931V13.1265C17.7334 15.1854 16.059 16.8598 14 16.8598C11.9411 16.8598 10.2667 15.1854 10.2667 13.1265V12.1931C10.2667 10.1342 11.9411 8.4598 14 8.4598ZM14 10.3265C12.9706 10.3265 12.1334 11.1637 12.1334 12.1931V13.1265C12.1334 14.1559 12.9706 14.9931 14 14.9931C15.0295 14.9931 15.8667 14.1559 15.8667 13.1265V12.1931C15.8667 11.1637 15.0295 10.3265 14 10.3265ZM13.9982 20.5931C11.832 20.5931 9.17699 21.8343 8.42192 22.6986L8.4201 23.7614C10.0637 24.7096 11.9654 25.2598 14 25.2598C16.0338 25.2598 17.9355 24.7087 19.58 23.7614C19.5791 23.4282 19.5773 23.0757 19.5764 22.6986C18.8213 21.8343 16.1654 20.5931 13.9982 20.5931Z" fill="white"/>
</svg>
