<svg width="20" height="20" viewBox="0 0 20 20" fill="none" xmlns="http://www.w3.org/2000/svg">
<path d="M14.7584 9.41629L6.83385 1.4917C6.51135 1.16921 5.98885 1.16921 5.66635 1.4917L3.99177 3.16629C3.66927 3.48879 3.66927 4.01129 3.99177 4.33379L11.9164 12.2584C12.2389 12.5809 12.7614 12.5809 13.0839 12.2584L14.7584 10.5838C15.0805 10.2613 15.0805 9.73879 14.7584 9.41629Z" fill="#EDEDEC"/>
<path d="M11.9163 7.7417L3.9917 15.6663C3.66921 15.9888 3.66921 16.5113 3.9917 16.8338L5.66629 18.5084C5.98879 18.8309 6.51129 18.8309 6.83379 18.5084L14.7584 10.5838C15.0809 10.2613 15.0809 9.73879 14.7584 9.41629L13.0838 7.7417C12.7613 7.41962 12.2388 7.41962 11.9163 7.7417Z" fill="#EDEDEC"/>
</svg>
