<svg width="50" height="50" viewBox="0 0 50 50" fill="none" xmlns="http://www.w3.org/2000/svg">
<path d="M25 5.20837C12.3636 5.20837 2.08337 14.0865 2.08337 25C2.08337 28.9792 3.45525 32.6844 5.80421 35.7907C5.25942 38.5021 4.0115 40.6469 3.06046 41.9709C2.56983 42.6511 2.53337 43.5219 2.96358 44.2459C3.34275 44.8823 4.02608 45.2646 4.75212 45.2646C4.83962 45.2646 4.92817 45.2594 5.01671 45.248C7.46046 44.9355 11.0105 44.2146 14.5448 42.6032C17.6823 43.998 21.2344 44.7917 25 44.7917C37.6365 44.7917 47.9167 35.9136 47.9167 25C47.9167 14.0865 37.6365 5.20837 25 5.20837Z" fill="#B1BECC"/>
<path d="M35.4166 19.7917H14.5833C14.0073 19.7917 13.5416 19.3261 13.5416 18.75C13.5416 18.174 14.0073 17.7084 14.5833 17.7084H35.4166C35.9927 17.7084 36.4583 18.174 36.4583 18.75C36.4583 19.3261 35.9927 19.7917 35.4166 19.7917Z" fill="#324561"/>
<path d="M35.4166 26.0417H14.5833C14.0073 26.0417 13.5416 25.5761 13.5416 25C13.5416 24.424 14.0073 23.9584 14.5833 23.9584H35.4166C35.9927 23.9584 36.4583 24.424 36.4583 25C36.4583 25.5761 35.9927 26.0417 35.4166 26.0417Z" fill="#324561"/>
<path d="M27.0833 32.2917H14.5833C14.0073 32.2917 13.5416 31.8261 13.5416 31.25C13.5416 30.674 14.0073 30.2084 14.5833 30.2084H27.0833C27.6593 30.2084 28.125 30.674 28.125 31.25C28.125 31.8261 27.6593 32.2917 27.0833 32.2917Z" fill="#324561"/>
</svg>
