<svg width="24" height="24" viewBox="0 0 24 24" fill="none" xmlns="http://www.w3.org/2000/svg">
<path d="M20.7354 2.49323C20.7082 2.49404 20.6812 2.49632 20.6543 2.50006H13.75C13.6506 2.49866 13.5519 2.51702 13.4597 2.55408C13.3675 2.59114 13.2836 2.64616 13.2128 2.71594C13.142 2.78573 13.0858 2.86888 13.0474 2.96057C13.0091 3.05227 12.9893 3.15067 12.9893 3.25006C12.9893 3.34946 13.0091 3.44786 13.0474 3.53955C13.0858 3.63125 13.142 3.7144 13.2128 3.78418C13.2836 3.85397 13.3675 3.90899 13.4597 3.94605C13.5519 3.98311 13.6506 4.00147 13.75 4.00006H18.9395L11.2197 11.7198C11.1477 11.7889 11.0903 11.8717 11.0507 11.9633C11.0111 12.0549 10.9902 12.1534 10.9892 12.2532C10.9882 12.353 11.0071 12.452 11.0448 12.5444C11.0825 12.6367 11.1383 12.7207 11.2088 12.7912C11.2794 12.8618 11.3633 12.9176 11.4557 12.9553C11.5481 12.993 11.6471 13.0119 11.7468 13.0109C11.8466 13.0099 11.9452 12.989 12.0368 12.9494C12.1284 12.9098 12.2112 12.8523 12.2803 12.7803L20 5.06061V10.2501C19.9986 10.3494 20.017 10.4481 20.054 10.5403C20.0911 10.6326 20.1461 10.7165 20.2159 10.7873C20.2857 10.8581 20.3688 10.9143 20.4605 10.9526C20.5522 10.991 20.6506 11.0107 20.75 11.0107C20.8494 11.0107 20.9478 10.991 21.0395 10.9526C21.1312 10.9143 21.2143 10.8581 21.2841 10.7873C21.3539 10.7165 21.4089 10.6326 21.446 10.5403C21.483 10.4481 21.5014 10.3494 21.5 10.2501V3.34479C21.5148 3.23688 21.5059 3.12705 21.4739 3.02293C21.442 2.91881 21.3877 2.8229 21.315 2.74186C21.2422 2.66082 21.1527 2.5966 21.0526 2.55366C20.9525 2.51073 20.8442 2.4901 20.7354 2.49323ZM6.25 4.00006C4.18775 4.00006 2.5 5.68781 2.5 7.75006V17.7501C2.5 19.8123 4.18775 21.5001 6.25 21.5001H16.25C18.3123 21.5001 20 19.8123 20 17.7501V12.7501C20.0014 12.6507 19.983 12.552 19.946 12.4598C19.9089 12.3676 19.8539 12.2836 19.7841 12.2128C19.7143 12.1421 19.6312 12.0859 19.5395 12.0475C19.4478 12.0091 19.3494 11.9894 19.25 11.9894C19.1506 11.9894 19.0522 12.0091 18.9605 12.0475C18.8688 12.0859 18.7857 12.1421 18.7159 12.2128C18.6461 12.2836 18.5911 12.3676 18.554 12.4598C18.517 12.552 18.4986 12.6507 18.5 12.7501V17.7501C18.5 19.0018 17.5017 20.0001 16.25 20.0001H6.25C4.99825 20.0001 4 19.0018 4 17.7501V7.75006C4 6.49831 4.99825 5.50006 6.25 5.50006H11.25C11.3494 5.50147 11.4481 5.48311 11.5403 5.44605C11.6325 5.40899 11.7164 5.35397 11.7872 5.28418C11.858 5.2144 11.9142 5.13125 11.9526 5.03955C11.9909 4.94786 12.0107 4.84946 12.0107 4.75006C12.0107 4.65067 11.9909 4.55227 11.9526 4.46058C11.9142 4.36888 11.858 4.28573 11.7872 4.21594C11.7164 4.14616 11.6325 4.09114 11.5403 4.05408C11.4481 4.01702 11.3494 3.99866 11.25 4.00006H6.25Z" fill="white"/>
</svg>
