<svg width="24" height="24" viewBox="0 0 24 24" fill="none" xmlns="http://www.w3.org/2000/svg">
<g filter="url(#filter0_b_45_597)">
<rect width="24" height="24" rx="12" fill="#515151" fill-opacity="0.64"/>
<g clip-path="url(#clip0_45_597)">
<path d="M11.04 6.71997C8.78434 6.71997 6.95996 8.54435 6.95996 10.8C6.95996 13.0556 8.78434 14.88 11.04 14.88C11.8453 14.88 12.5906 14.6437 13.2225 14.2425L16.17 17.19L17.19 16.17L14.28 13.2675C14.8031 12.5812 15.12 11.7309 15.12 10.8C15.12 8.54435 13.2956 6.71997 11.04 6.71997ZM11.04 7.67997C12.7678 7.67997 14.16 9.07216 14.16 10.8C14.16 12.5278 12.7678 13.92 11.04 13.92C9.31215 13.92 7.91996 12.5278 7.91996 10.8C7.91996 9.07216 9.31215 7.67997 11.04 7.67997Z" fill="#D9D9D9"/>
</g>
</g>
<defs>
<filter id="filter0_b_45_597" x="-4" y="-4" width="32" height="32" filterUnits="userSpaceOnUse" color-interpolation-filters="sRGB">
<feFlood flood-opacity="0" result="BackgroundImageFix"/>
<feGaussianBlur in="BackgroundImageFix" stdDeviation="2"/>
<feComposite in2="SourceAlpha" operator="in" result="effect1_backgroundBlur_45_597"/>
<feBlend mode="normal" in="SourceGraphic" in2="effect1_backgroundBlur_45_597" result="shape"/>
</filter>
<clipPath id="clip0_45_597">
<rect width="12" height="12" fill="white" transform="translate(6 6)"/>
</clipPath>
</defs>
</svg>
