<svg width="20" height="20" viewBox="0 0 20 20" fill="none" xmlns="http://www.w3.org/2000/svg">
<path d="M9.75965 1.81055C9.59429 1.81056 9.4355 1.87531 9.3173 1.99095L2.41633 7.63528C2.40836 7.64128 2.40053 7.64746 2.39285 7.65382L2.36938 7.67359V7.67482C2.30592 7.73394 2.2553 7.80546 2.22066 7.88496C2.18601 7.96446 2.16807 8.05023 2.16797 8.13695C2.16797 8.30473 2.23462 8.46565 2.35326 8.58429C2.47191 8.70294 2.63282 8.76959 2.80061 8.76959H3.43325V15.7286C3.43325 16.4277 3.99946 16.9939 4.69853 16.9939H14.8208C15.5198 16.9939 16.0861 16.4277 16.0861 15.7286V8.76959H16.7187C16.8865 8.76959 17.0474 8.70294 17.166 8.58429C17.2847 8.46565 17.3513 8.30473 17.3513 8.13695C17.3514 8.05002 17.3335 7.96401 17.2989 7.88429C17.2642 7.80457 17.2135 7.73284 17.1499 7.67359L17.14 7.66617C17.1262 7.6536 17.1117 7.64164 17.0968 7.63034L16.0861 6.80371V4.34111C16.0861 3.99189 15.8026 3.70847 15.4534 3.70847H14.8208C14.4716 3.70847 14.1881 3.99189 14.1881 4.34111V5.25176L10.1884 1.97983C10.0719 1.87149 9.91877 1.81104 9.75965 1.81055ZM11.6576 10.0349H14.1881V15.096H11.6576V10.0349Z" fill="#FE7636"/>
</svg>
