<svg width="50" height="50" viewBox="0 0 50 50" fill="none" xmlns="http://www.w3.org/2000/svg">
<path d="M22.5001 1.66663C17.4575 1.66663 13.3334 5.79066 13.3334 10.8333V11.8326C9.52992 12.6048 6.66675 15.9689 6.66675 20C6.66675 23.4143 8.72689 26.3427 11.6667 27.6302V41.6666L14.1667 45H15.8334L18.3334 41.6666V40L16.6667 38.3333L18.3334 36.6666L16.6667 35L18.3334 33.3365V27.6302C21.2733 26.3427 23.3334 23.4143 23.3334 20C23.3334 17.2816 22.0134 14.8924 20.0001 13.3724V16.6666C20.0001 19.1983 18.1107 21.2683 15.6707 21.5983C15.454 21.6433 15.2301 21.6666 15.0001 21.6666C13.1584 21.6666 11.6667 20.175 11.6667 18.3333C11.6667 17.1017 12.3407 16.0393 13.3334 15.4622V16.6666C13.3303 16.8875 13.3711 17.1068 13.4534 17.3117C13.5358 17.5166 13.6581 17.7032 13.8131 17.8605C13.9682 18.0177 14.153 18.1426 14.3568 18.2279C14.5605 18.3131 14.7792 18.357 15.0001 18.357C15.221 18.357 15.4396 18.3131 15.6434 18.2279C15.8472 18.1426 16.0319 18.0177 16.187 17.8605C16.3421 17.7032 16.4644 17.5166 16.5467 17.3117C16.6291 17.1068 16.6699 16.8875 16.6667 16.6666V10.8333C16.6667 7.59259 19.2594 4.99996 22.5001 4.99996C23.9954 4.99996 25.3357 5.57136 26.364 6.48433C24.6425 7.73032 23.5064 9.62404 23.2032 11.7089C25.3415 13.8223 26.6667 16.7566 26.6667 20C26.6667 21.2633 26.459 22.4782 26.0873 23.6165L29.9057 35.8886C30.4757 37.722 32.4246 38.7438 34.2579 38.1738L42.5554 35.5924C44.3888 35.0224 45.4106 33.0735 44.8406 31.2402L38.6459 11.3281C38.6459 11.3281 38.4821 10.798 38.3888 10.498C37.6638 8.16467 35.9364 6.43749 33.8347 5.58915C34.423 7.48582 34.4615 9.536 33.8998 11.4843C34.4315 13.216 33.4635 15.0541 31.7319 15.5924C31.4069 15.6941 31.0754 15.7421 30.752 15.7421C29.3487 15.7421 28.0491 14.8377 27.6108 13.4277C27.2591 12.2978 27.5579 11.1286 28.2813 10.2962C28.2977 10.4757 28.3334 10.6492 28.3334 10.8333C28.3303 11.0541 28.3711 11.2734 28.4534 11.4784C28.5358 11.6833 28.6581 11.8698 28.8131 12.0271C28.9682 12.1844 29.153 12.3093 29.3568 12.3946C29.5605 12.4798 29.7792 12.5237 30.0001 12.5237C30.221 12.5237 30.4396 12.4798 30.6434 12.3946C30.8472 12.3093 31.0319 12.1844 31.187 12.0271C31.3421 11.8698 31.4644 11.6833 31.5467 11.4784C31.6291 11.2734 31.6699 11.0541 31.6667 10.8333C31.6667 5.79066 27.5427 1.66663 22.5001 1.66663Z" fill="#F99E74"/>
</svg>
