<svg width="20" height="20" viewBox="0 0 20 20" fill="none" xmlns="http://www.w3.org/2000/svg">
<g clip-path="url(#clip0_45_512)">
<path d="M9.75962 0.741516C6.41157 0.741516 3.68628 3.46681 3.68628 6.81486C3.68628 12.172 9.23918 18.5612 9.47494 18.8311C9.54759 18.9141 9.6499 18.9616 9.75962 18.9616C9.87676 18.9541 9.97166 18.9141 10.0443 18.8311C10.2801 18.5568 15.833 12.0579 15.833 6.81486C15.833 3.46681 13.1077 0.741516 9.75962 0.741516ZM9.75962 4.91694C11.017 4.91694 12.0371 5.93707 12.0371 7.19445C12.0371 8.45182 11.017 9.47195 9.75962 9.47195C8.50225 9.47195 7.48212 8.45182 7.48212 7.19445C7.48212 5.93707 8.50225 4.91694 9.75962 4.91694Z" fill="#FE7636"/>
</g>
<defs>
<clipPath id="clip0_45_512">
<rect width="18.9792" height="18.9792" fill="white" transform="translate(0.27002 0.361938)"/>
</clipPath>
</defs>
</svg>
