<svg width="12" height="12" viewBox="0 0 12 12" fill="none" xmlns="http://www.w3.org/2000/svg">
<path d="M5.99991 0.23999C3.88304 0.23999 2.15991 1.96312 2.15991 4.07999C2.15991 7.46718 5.67085 11.5069 5.81991 11.6775C5.86585 11.73 5.93054 11.76 5.99991 11.76C6.07397 11.7553 6.13397 11.73 6.17991 11.6775C6.32897 11.5041 9.83991 7.39499 9.83991 4.07999C9.83991 1.96312 8.11679 0.23999 5.99991 0.23999ZM5.99991 2.87999C6.79491 2.87999 7.43991 3.52499 7.43991 4.31999C7.43991 5.11499 6.79491 5.75999 5.99991 5.75999C5.20491 5.75999 4.55991 5.11499 4.55991 4.31999C4.55991 3.52499 5.20491 2.87999 5.99991 2.87999Z" fill="#FE7636"/>
</svg>
