<svg width="50" height="50" viewBox="0 0 50 50" fill="none" xmlns="http://www.w3.org/2000/svg">
<path d="M12.5001 20.8334C15.3766 20.8334 17.7084 18.5016 17.7084 15.6251C17.7084 12.7486 15.3766 10.4167 12.5001 10.4167C9.6236 10.4167 7.29175 12.7486 7.29175 15.6251C7.29175 18.5016 9.6236 20.8334 12.5001 20.8334Z" fill="url(#paint0_linear_45_552)"/>
<path d="M12.5 22.9167C7.32187 22.9167 3.125 27.1136 3.125 32.2917V41.6667C3.125 42.8178 4.05729 43.7501 5.20833 43.7501H19.7917C20.9427 43.7501 21.875 42.8178 21.875 41.6667V32.2917C21.875 27.1136 17.6781 22.9167 12.5 22.9167Z" fill="url(#paint1_linear_45_552)"/>
<path d="M37.5001 20.8333C40.3766 20.8333 42.7084 18.5014 42.7084 15.625C42.7084 12.7485 40.3766 10.4166 37.5001 10.4166C34.6236 10.4166 32.2917 12.7485 32.2917 15.625C32.2917 18.5014 34.6236 20.8333 37.5001 20.8333Z" fill="url(#paint2_linear_45_552)"/>
<path d="M37.5 22.9166C32.3219 22.9166 28.125 27.1135 28.125 32.2916V41.6666C28.125 42.8177 29.0573 43.75 30.2083 43.75H44.7917C45.9427 43.75 46.875 42.8177 46.875 41.6666V32.2916C46.875 27.1135 42.6781 22.9166 37.5 22.9166Z" fill="url(#paint3_linear_45_552)"/>
<path d="M25.0001 16.6667C27.8766 16.6667 30.2084 14.3348 30.2084 11.4583C30.2084 8.58185 27.8766 6.25 25.0001 6.25C22.1236 6.25 19.7917 8.58185 19.7917 11.4583C19.7917 14.3348 22.1236 16.6667 25.0001 16.6667Z" fill="url(#paint4_linear_45_552)"/>
<path opacity="0.05" d="M36.4583 41.6667V28.125C36.4583 26.3531 36.0427 24.6802 35.3208 23.1813C31.1958 24.1656 28.125 27.8656 28.125 32.2917V41.6667C28.125 42.8177 29.0573 43.75 30.2083 43.75H35.8792C36.2375 43.1344 36.4583 42.4292 36.4583 41.6667Z" fill="black"/>
<path opacity="0.067" d="M35.7635 41.6667V28.125C35.7635 26.4365 35.3625 24.8438 34.6667 23.4198C30.8844 24.5854 28.125 28.1115 28.125 32.2917V41.6667C28.125 42.8177 29.0573 43.75 30.2083 43.75H34.6833C35.3063 43.3396 35.7635 42.5583 35.7635 41.6667Z" fill="black"/>
<path opacity="0.09" d="M35.0698 41.6667V28.125C35.0698 26.5187 34.6833 25.0062 34.0135 23.6583C30.5729 25.0052 28.125 28.3573 28.125 32.2917V41.6667C28.125 42.8177 29.0573 43.75 30.2083 43.75H33.4875C34.374 43.5448 35.0698 42.6875 35.0698 41.6667Z" fill="black"/>
<path opacity="0.05" d="M13.5417 41.6667V28.125C13.5417 26.3531 13.9574 24.6802 14.6792 23.1813C18.8042 24.1656 21.8751 27.8656 21.8751 32.2917V41.6667C21.8751 42.8177 20.9428 43.75 19.7917 43.75H14.1209C13.7626 43.1344 13.5417 42.4292 13.5417 41.6667Z" fill="black"/>
<path opacity="0.067" d="M14.2366 41.6667V28.125C14.2366 26.4365 14.6376 24.8438 15.3334 23.4198C19.1157 24.5854 21.8751 28.1115 21.8751 32.2917V41.6667C21.8751 42.8177 20.9428 43.75 19.7918 43.75H15.3168C14.6939 43.3396 14.2366 42.5583 14.2366 41.6667Z" fill="black"/>
<path opacity="0.09" d="M14.9302 41.6667V28.125C14.9302 26.5187 15.3166 25.0062 15.9864 23.6583C19.4271 25.0052 21.875 28.3573 21.875 32.2917V41.6667C21.875 42.8177 20.9427 43.75 19.7916 43.75H16.5125C15.626 43.5448 14.9302 42.6875 14.9302 41.6667Z" fill="black"/>
<path d="M25 18.75C19.8219 18.75 15.625 22.9469 15.625 28.125V41.6667C15.625 42.8177 16.5573 43.75 17.7083 43.75H32.2917C33.4427 43.75 34.375 42.8177 34.375 41.6667V28.125C34.375 22.9469 30.1781 18.75 25 18.75Z" fill="url(#paint5_linear_45_552)"/>
<defs>
<linearGradient id="paint0_linear_45_552" x1="8.96675" y1="12.0917" x2="16.2334" y2="19.3584" gradientUnits="userSpaceOnUse">
<stop stop-color="#FC5000"/>
<stop offset="1" stop-color="#FE7636"/>
</linearGradient>
<linearGradient id="paint1_linear_45_552" x1="4.61563" y1="27.5855" x2="20.8312" y2="43.8001" gradientUnits="userSpaceOnUse">
<stop stop-color="#E06B37"/>
<stop offset="1" stop-color="#FE7636"/>
</linearGradient>
<linearGradient id="paint2_linear_45_552" x1="33.9667" y1="12.0916" x2="41.2334" y2="19.3583" gradientUnits="userSpaceOnUse">
<stop stop-color="#FC5000"/>
<stop offset="1" stop-color="#FE7636"/>
</linearGradient>
<linearGradient id="paint3_linear_45_552" x1="29.6156" y1="27.5854" x2="45.8312" y2="43.8" gradientUnits="userSpaceOnUse">
<stop stop-color="#E06B37"/>
<stop offset="1" stop-color="#FE7636"/>
</linearGradient>
<linearGradient id="paint4_linear_45_552" x1="21.4667" y1="7.925" x2="28.7334" y2="15.1917" gradientUnits="userSpaceOnUse">
<stop stop-color="#FE7636"/>
<stop offset="1" stop-color="#FC5000"/>
</linearGradient>
<linearGradient id="paint5_linear_45_552" x1="22.0635" y1="19.851" x2="27.2938" y2="46" gradientUnits="userSpaceOnUse">
<stop stop-color="#E57E36"/>
<stop offset="1" stop-color="#F99E74"/>
</linearGradient>
</defs>
</svg>
