<svg width="24" height="25" viewBox="0 0 24 25" fill="none" xmlns="http://www.w3.org/2000/svg">
<path d="M11.9999 2.45981C6.6983 2.45981 2.3999 6.75821 2.3999 12.0598C2.3999 17.3614 6.6983 21.6598 11.9999 21.6598C17.3015 21.6598 21.5999 17.3614 21.5999 12.0598C21.5999 6.75821 17.3015 2.45981 11.9999 2.45981ZM16.7999 12.8598H12.7999V16.8598C12.7999 17.3022 12.4415 17.6598 11.9999 17.6598C11.5583 17.6598 11.1999 17.3022 11.1999 16.8598V12.8598H7.1999C6.7583 12.8598 6.3999 12.5022 6.3999 12.0598C6.3999 11.6174 6.7583 11.2598 7.1999 11.2598H11.1999V7.25981C11.1999 6.81741 11.5583 6.45981 11.9999 6.45981C12.4415 6.45981 12.7999 6.81741 12.7999 7.25981V11.2598H16.7999C17.2415 11.2598 17.5999 11.6174 17.5999 12.0598C17.5999 12.5022 17.2415 12.8598 16.7999 12.8598Z" fill="white"/>
</svg>
