<svg width="16" height="16" viewBox="0 0 16 16" fill="none" xmlns="http://www.w3.org/2000/svg">
<path d="M4.61168 2C5.04522 2 5.45047 2.16964 5.75206 2.47123L6.74164 3.46081L7.20345 2.99901C7.6841 2.50893 8.46635 2.50893 8.93758 2.98958L9.20147 3.25347C9.31456 3.36657 9.31456 3.54563 9.20147 3.64931L6.5343 6.31647C6.47776 6.37302 6.40236 6.40129 6.33639 6.40129C6.27041 6.40129 6.19502 6.37302 6.13847 6.31647L5.87458 6.05258C5.39393 5.57192 5.39393 4.79911 5.87458 4.31845L6.33639 3.85665L5.35623 2.87649C5.15831 2.67857 4.89442 2.56548 4.61168 2.56548C4.03678 2.56548 3.56555 3.03671 3.56555 3.61161V11.9901H5.16774H12.9902C13.5085 11.9901 13.9326 12.4142 13.9326 12.9325C13.9326 13.4509 13.5085 13.875 12.9902 13.875H3.28281C3.1226 13.875 3.00008 13.7525 3.00008 13.5923V3.61161C3.00008 2.72569 3.72577 2 4.61168 2Z" fill="#8D8D8D"/>
</svg>
